<?xml version="1.0" standalone="no"?>
<!DOCTYPE svg PUBLIC "-//W3C//DTD SVG 20010904//EN"
 "http://www.w3.org/TR/2001/REC-SVG-20010904/DTD/svg10.dtd">
<svg version="1.0" xmlns="http://www.w3.org/2000/svg"
 width="595.000000pt" height="595.000000pt" viewBox="0 0 595.000000 595.000000"
 preserveAspectRatio="xMidYMid meet">
<metadata>
Created by potrace 1.11, written by Peter Selinger 2001-2013
</metadata>
<g transform="translate(0.000000,595.000000) scale(0.100000,-0.100000)"
fill="#000000" stroke="none">
<path d="M2748 5795 c-2 -2 -32 -6 -68 -10 -36 -3 -90 -10 -120 -15 -30 -5
-71 -12 -90 -15 -19 -3 -55 -11 -80 -16 -25 -6 -54 -12 -65 -15 -65 -13 -256
-72 -353 -110 -476 -184 -881 -479 -1197 -874 -347 -432 -550 -926 -613 -1488
-14 -134 -6 -605 13 -672 2 -8 7 -35 10 -60 7 -55 23 -143 35 -190 11 -42 22
-90 26 -108 8 -40 93 -281 127 -362 164 -386 422 -746 728 -1015 370 -326 793
-542 1274 -649 61 -14 130 -28 155 -31 25 -3 61 -8 80 -11 144 -20 510 -27
655 -12 518 54 1007 245 1422 554 43 32 80 61 83 64 3 3 37 32 75 65 306 260
587 645 748 1026 63 149 132 356 153 462 2 10 5 26 8 35 3 9 8 33 11 52 3 19
8 49 12 65 3 17 7 37 8 45 1 8 8 60 16 115 15 107 19 500 7 620 -46 448 -201
890 -445 1267 -33 51 -125 181 -133 188 -3 3 -16 18 -28 34 -68 88 -227 256
-332 351 -348 312 -802 545 -1260 646 -94 21 -243 47 -311 55 -48 6 -546 14
-551 9z m341 -650 c212 -33 408 -183 498 -380 166 -365 -17 -781 -402 -910
-63 -21 -101 -27 -180 -28 -122 -2 -168 6 -263 44 -249 99 -408 324 -417 589
-7 203 55 361 197 500 62 61 197 150 229 150 8 0 19 3 23 7 3 4 12 8 19 9 7 2
41 9 77 17 62 13 144 14 219 2z m-1789 -859 c69 -4 136 -8 150 -11 14 -2 43
-6 65 -10 153 -22 318 -61 450 -106 282 -96 579 -263 909 -511 57 -43 106 -78
110 -78 3 0 48 31 98 68 290 214 532 359 788 469 148 65 337 126 455 149 22 4
47 9 55 10 8 2 38 7 65 10 28 4 72 10 99 14 67 10 315 5 346 -7 37 -16 79 -61
88 -97 4 -17 8 -596 7 -1286 0 -1242 0 -1255 -20 -1290 -24 -39 -70 -70 -117
-76 -18 -3 -58 -9 -88 -14 -30 -5 -71 -12 -90 -15 -19 -3 -55 -10 -80 -15 -25
-5 -57 -12 -71 -14 -89 -14 -444 -119 -524 -155 -11 -5 -56 -24 -100 -42 -231
-95 -598 -307 -836 -482 -17 -12 -43 -19 -71 -19 -42 0 -63 12 -234 125 -371
245 -626 373 -959 481 -107 35 -314 89 -385 101 -19 3 -46 8 -60 10 -14 3 -36
8 -50 10 -24 5 -104 18 -184 30 -48 7 -91 37 -113 78 -16 30 -17 128 -17 1297
0 1183 1 1267 17 1300 10 19 29 43 42 53 24 17 98 36 120 31 6 -1 66 -5 135
-8z"/>
<path d="M2859 4847 c-160 -54 -255 -192 -253 -367 1 -75 5 -94 32 -150 52
-107 122 -170 222 -201 232 -72 450 54 501 289 36 172 -73 367 -241 428 -74
27 -184 27 -261 1z"/>
<path d="M1270 2901 l0 -1110 33 -6 c17 -3 44 -7 60 -9 15 -3 35 -7 45 -10 9
-3 33 -7 53 -10 69 -10 344 -84 459 -124 337 -115 701 -297 986 -493 39 -27
73 -49 77 -49 4 0 57 33 119 73 522 339 974 519 1561 621 l37 7 0 1110 0 1111
-82 -6 c-451 -30 -888 -227 -1452 -653 -113 -86 -154 -106 -201 -100 -22 3
-83 41 -177 109 -172 126 -229 164 -373 253 -136 85 -382 210 -495 253 -47 18
-94 37 -105 42 -26 12 -144 46 -225 64 -79 19 -119 24 -232 31 l-88 6 0 -1110z"/>
</g>
</svg>
